<svg xmlns="http://www.w3.org/2000/svg" xmlns:svg="http://www.w3.org/2000/svg" xmlns:xlink="http://www.w3.org/1999/xlink" version="1.0" height="410pt" width="830.000000000001pt" viewBox="874.9999999999997 57.000000000000014 838.000000000001 416" ><defs><style type="text/css">
            @font-face {
                font-family: 'noto_regular';
                src: url('https://app.creately.com/diagram/assets/fonts/noto/noto-regular.woff') format('woff'),
                     url('https://app.creately.com/diagram/assets/fonts/noto/noto-regular.woff2') format('woff2');
                font-weight: normal;
                font-style: normal;
            }
        p {
            margin: 0;
        }
        </style></defs><defs><style>
            span{ display: inline-block; }
        </style></defs><g id="8nE3YUN034S"><g transform="translate(879.9999999999997 99.99999999999997)"><ellipse cx="10" cy="10" rx="10" ry="10" fill="rgb(0,0,0)" stroke="rgba(6,47,68,0)" stroke-width="3" stroke-linecap="round" stroke-linejoin="round"/></g></g><g id="NpZujI8UB3C"><mask id="60629" x="886" y="96" width="108" height="28" maskUnits="userSpaceOnUse"><rect x="886" y="96" width="108" height="28" fill="white" />undefinedundefined</mask><g mask="url(#60629)"><path d="M 900,110 L 980,110" fill="none" stroke="#878787" stroke-width="2" stroke-linecap="round" stroke-linejoin="round"/><path d="M 980,110 L 973.0434782608696,103.50282485875707 M 980,110 L 973.0434782608696,116.49717514124293 Z" fill="rgb(255,255,255)" stroke="#878787" stroke-width="2" stroke-linecap="round" stroke-linejoin="round"/></g>undefinedundefined</g><g id="Pmv30HJV5S9"><g transform="translate(980.0000000000002 89.99999999999997)"><path d="M 20,40 L 20,40 L 20,40 A 20 20 0 0 1 0 20.000000000000004 L 0,20 L 0,20.000000000000004 A 20 20 0 0 1 20 0 L 110,0 L 110,0 L 110,0 A 20 20 0 0 1 130 20 L 130,20 L 130,20 A 20 20 0 0 1 110 40 L 20,40 Z" fill="rgb(123,159,255)" stroke="rgba(6,47,68,0)" stroke-width="3" stroke-linecap="round" stroke-linejoin="round"/></g><g transform="translate(990.9650000000003, 100.99999999999997) rotate(0, 54.035, 9)" width="108.07" height="18"><text text-decoration="none" x="5.534999999999997" fill="#ffffff" font-size="10pt" font-family="noto_regular"  y="15">Voter&#160;</text><text text-decoration="none" x="38.535" fill="#ffffff" font-size="10pt" font-family="noto_regular"  y="15">Registation</text><text text-decoration="none" x="102.535" fill="#4b4b4b" font-size="10pt" font-family="noto_regular"  y="15"></text></g></g><g id="e0xzJKdl9jn"><g transform="translate(1229.9999999999995 89.99999999999997)"><path d="M 20,40 L 20,40 L 20,40 A 20 20 0 0 1 0 20.000000000000004 L 0,20 L 0,20.000000000000004 A 20 20 0 0 1 20 0 L 100,0 L 100,0 L 100,0 A 20 20 0 0 1 120 20 L 120,20 L 120,20 A 20 20 0 0 1 100 40 L 20,40 Z" fill="rgb(123,159,255)" stroke="rgba(6,47,68,0)" stroke-width="3" stroke-linecap="round" stroke-linejoin="round"/></g><g transform="translate(1263.2099999999996, 100.99999999999997) rotate(0, 26.79, 9)" width="53.58" height="18"><text text-decoration="none" x="2.289999999999999" fill="#ffffff" font-size="10pt" font-family="noto_regular"  y="15">Verify&#160;</text><text text-decoration="none" x="38.29" fill="#ffffff" font-size="10pt" font-family="noto_regular"  y="15">ID</text><text text-decoration="none" x="51.29" fill="#4b4b4b" font-size="10pt" font-family="noto_regular"  y="15"></text></g></g><g id="nI3EHzfW0bC"><g><path d="M 1350,110 L 1420,110" fill="none" stroke="#878787" stroke-width="2" stroke-linecap="round" stroke-linejoin="round"/><path d="M 1420,110 L 1413.0434782608695,103.50282485875707 M 1420,110 L 1413.0434782608695,116.49717514124293 Z" fill="rgb(255,255,255)" stroke="#878787" stroke-width="2" stroke-linecap="round" stroke-linejoin="round"/></g></g><g id="f8m1cyAgqfN"><g transform="translate(1540.0000000000007 199.99999999999997)"><path d="M 20,40 L 20,40 L 20,40 A 20 20 0 0 1 0 20.000000000000004 L 0,20 L 0,20.000000000000004 A 20 20 0 0 1 20 0 L 150,0 L 150,0 L 150,0 A 20 20 0 0 1 170 20 L 170,20 L 170,20 A 20 20 0 0 1 150 40 L 20,40 Z" fill="rgb(123,159,255)" stroke="rgba(6,47,68,0)" stroke-width="3" stroke-linecap="round" stroke-linejoin="round" stroke-dasharray="0 0"/></g><g transform="translate(1552.3200000000006, 210.99999999999997) rotate(0, 72.68, 9)" width="145.36" height="18"><text text-decoration="none" x="7.680000000000007" fill="#ffffff" font-size="10pt" font-family="noto_regular"  y="15">Save&#160;</text><text text-decoration="none" x="38.68000000000001" fill="#ffffff" font-size="10pt" font-family="noto_regular"  y="15">Voter&#160;</text><text text-decoration="none" x="71.68" fill="#ffffff" font-size="10pt" font-family="noto_regular"  y="15">Information</text><text text-decoration="none" x="137.68" fill="#4b4b4b" font-size="10pt" font-family="noto_regular"  y="15"></text></g></g><g id="rXebnOqztsv"><mask id="fb004" x="1516" y="96" width="123" height="118" maskUnits="userSpaceOnUse"><rect x="1516" y="96" width="123" height="118" fill="white" /><rect x="1546.27" y="97.99999999999999" width="27.46" height="24" fill="black" /></mask><g mask="url(#fb004)"><path d="M 1530,110 L 1615.0000000000007,109.99999999999997 Q 1625.0000000000007,109.99999999999997 1625.0000000000007,119.99999999999997 L 1625,200" fill="none" stroke="#878787" stroke-width="2" stroke-linecap="round" stroke-linejoin="round"/><path d="M 1625,200 L 1631.497175141243,193.04347826086956 M 1625,200 L 1618.502824858757,193.04347826086956 Z" fill="rgb(255,255,255)" stroke="#878787" stroke-width="2" stroke-linecap="round" stroke-linejoin="round"/></g><g transform="translate(1549.27, 100.99999999999999)" width="21.46" height="18"><text text-decoration="none" x="0" fill="#878787" font-size="10pt" font-family="noto_regular"  y="15">Yes</text><text text-decoration="none" x="22" fill="#4b4b4b" font-size="10pt" font-family="noto_regular"  y="15"></text></g></g><g id="u0rjKip8yDl"><g transform="translate(1565.0000000000007 280)"><path d="M 20,40 L 20,40 L 20,40 A 20 20 0 0 1 0 20.000000000000004 L 0,20 L 0,20.000000000000004 A 20 20 0 0 1 20 0 L 100,0 L 100,0 L 100,0 A 20 20 0 0 1 120 20 L 120,20 L 120,20 A 20 20 0 0 1 100 40 L 20,40 Z" fill="rgb(123,159,255)" stroke="rgba(6,47,68,0)" stroke-width="3" stroke-linecap="round" stroke-linejoin="round" stroke-dasharray="0 0"/></g><g transform="translate(1603.2800000000007, 291) rotate(0, 21.72, 9)" width="43.44" height="18"><text text-decoration="none" x="2.219999999999999" fill="#ffffff" font-size="10pt" font-family="noto_regular"  y="15">Sign&#160;</text><text text-decoration="none" x="30.22" fill="#ffffff" font-size="10pt" font-family="noto_regular"  y="15">In</text><text text-decoration="none" x="41.22" fill="#4b4b4b" font-size="10pt" font-family="noto_regular"  y="15"></text></g></g><g id="6BBvaNtkqsC"><g><path d="M 1625,240 L 1625,280" fill="none" stroke="#878787" stroke-width="2" stroke-linecap="round" stroke-linejoin="round"/><path d="M 1625,280 L 1631.497175141243,273.04347826086956 M 1625,280 L 1618.502824858757,273.04347826086956 Z" fill="rgb(255,255,255)" stroke="#878787" stroke-width="2" stroke-linecap="round" stroke-linejoin="round"/></g></g><g id="QXZeyDsxBxf"><g transform="translate(1470.0000000000002 370)"><path d="M 55.00000000000014,0 L 0,49.999999999999964 L 55.00000000000014,99.99999999999993 L 110.00000000000028,49.999999999999964 L 55.00000000000014,0 Z" fill="rgb(255,89,97)" stroke="rgba(6,47,68,0)" stroke-width="3" stroke-linecap="round" stroke-linejoin="round"/></g><g transform="translate(1505.3350000000005, 401.995) rotate(0, 19.665, 18.005)" width="39.33" height="36.01"><text text-decoration="none" x="1.6649999999999991" fill="#ffffff" font-size="10pt" font-family="noto_regular"  y="12">Verify&#160;</text><text text-decoration="none" x="37.665" fill="#ffffff" font-size="10pt" font-family="noto_regular"  y="12"></text><text text-decoration="none" x="3.664999999999999" fill="#ffffff" font-size="10pt" font-family="noto_regular"  y="31">User?</text><text text-decoration="none" x="35.665" fill="#4b4b4b" font-size="10pt" font-family="noto_regular"  y="31"></text></g></g><g id="18diTXLfuNm"><g transform="translate(1260.0000000000007 400)"><path d="M 20,40 L 20,40 L 20,40 A 20 20 0 0 1 0 20.000000000000004 L 0,20 L 0,20.000000000000004 A 20 20 0 0 1 20 0 L 100,0 L 100,0 L 100,0 A 20 20 0 0 1 120 20 L 120,20 L 120,20 A 20 20 0 0 1 100 40 L 20,40 Z" fill="rgb(123,159,255)" stroke="rgba(6,47,68,0)" stroke-width="3" stroke-linecap="round" stroke-linejoin="round"/></g><g transform="translate(1302.5300000000007, 411) rotate(0, 17.47, 9)" width="34.94" height="18"><text text-decoration="none" x="1.9699999999999989" fill="#ffffff" font-size="10pt" font-family="noto_regular"  y="15">Login</text><text text-decoration="none" x="32.97" fill="#4b4b4b" font-size="10pt" font-family="noto_regular"  y="15"></text></g></g><g id="Nm1jev8ZABI"><mask id="9168c" x="1366" y="406" width="118" height="28" maskUnits="userSpaceOnUse"><rect x="1366" y="406" width="118" height="28" fill="white" /><rect x="1414.362698786079" y="408" width="27.46" height="24" fill="black" /></mask><g mask="url(#9168c)"><path d="M 1470,420 L 1380,420" fill="none" stroke="#878787" stroke-width="2" stroke-linecap="round" stroke-linejoin="round"/><path d="M 1380,420 L 1386.9565217391305,426.49717514124296 M 1380,420 L 1386.9565217391305,413.50282485875704 Z" fill="rgb(255,255,255)" stroke="#878787" stroke-width="2" stroke-linecap="round" stroke-linejoin="round"/></g><g transform="translate(1417.362698786079, 411)" width="21.46" height="18"><text text-decoration="none" x="0" fill="#878787" font-size="10pt" font-family="noto_regular"  y="15">Yes</text><text text-decoration="none" x="22" fill="#4b4b4b" font-size="10pt" font-family="noto_regular"  y="15"></text></g></g><g id="sbtrbwpIOOD"><g><path d="M 1260,420 L 1220,420" fill="none" stroke="#878787" stroke-width="2" stroke-linecap="round" stroke-linejoin="round"/><path d="M 1220,420 L 1226.9565217391305,426.49717514124296 M 1220,420 L 1226.9565217391305,413.50282485875704 Z" fill="rgb(255,255,255)" stroke="#878787" stroke-width="2" stroke-linecap="round" stroke-linejoin="round"/></g></g><g id="yDNu3gAhQ9n"><g transform="translate(1099.9999999999993 400)"><path d="M 20,40 L 20,40 L 20,40 A 20 20 0 0 1 0 20.000000000000004 L 0,20 L 0,20.000000000000004 A 20 20 0 0 1 20 0 L 100,0 L 100,0 L 100,0 A 20 20 0 0 1 120 20 L 120,20 L 120,20 A 20 20 0 0 1 100 40 L 20,40 Z" fill="rgb(123,159,255)" stroke="rgba(6,47,68,0)" stroke-width="3" stroke-linecap="round" stroke-linejoin="round" stroke-dasharray="0 0"/></g><g transform="translate(1130.5049999999994, 411) rotate(0, 29.495, 9)" width="58.99" height="18"><text text-decoration="none" x="1.995000000000001" fill="#ffffff" font-size="10pt" font-family="noto_regular"  y="15">Cast&#160;</text><text text-decoration="none" x="30.995" fill="#ffffff" font-size="10pt" font-family="noto_regular"  y="15">Vote</text><text text-decoration="none" x="56.995000000000005" fill="#4b4b4b" font-size="10pt" font-family="noto_regular"  y="15"></text></g></g><g id="gupmXXP9Bvu"><g transform="translate(939.9999999999995 400)"><path d="M 20,40 L 20,40 L 20,40 A 20 20 0 0 1 0 20.000000000000004 L 0,20 L 0,20.000000000000004 A 20 20 0 0 1 20 0 L 100,0 L 100,0 L 100,0 A 20 20 0 0 1 120 20 L 120,20 L 120,20 A 20 20 0 0 1 100 40 L 20,40 Z" fill="rgb(123,159,255)" stroke="rgba(6,47,68,0)" stroke-width="3" stroke-linecap="round" stroke-linejoin="round" stroke-dasharray="0 0"/></g><g transform="translate(958.1449999999995, 411) rotate(0, 41.855, 9)" width="83.71" height="18"><text text-decoration="none" x="3.354999999999997" fill="#ffffff" font-size="10pt" font-family="noto_regular"  y="15">Acknowledge</text><text text-decoration="none" x="80.35499999999999" fill="#4b4b4b" font-size="10pt" font-family="noto_regular"  y="15"></text></g></g><g id="FRc0nvatgh3"><g><path d="M 1100,420 L 1060,420" fill="none" stroke="#878787" stroke-width="2" stroke-linecap="round" stroke-linejoin="round"/><path d="M 1060,420 L 1066.9565217391305,426.49717514124296 M 1060,420 L 1066.9565217391305,413.50282485875704 Z" fill="rgb(255,255,255)" stroke="#878787" stroke-width="2" stroke-linecap="round" stroke-linejoin="round"/></g></g><g id="wv4QbM0cZqE"><g><path d="M 1625,320 L 1625.0000000000007,410 Q 1625.0000000000007,420 1615.0000000000007,420 L 1580,420" fill="none" stroke="#878787" stroke-width="2" stroke-linecap="round" stroke-linejoin="round"/></g></g><g id="YhavEJaZlkF"><g><path d="M 1230,110 L 1110,110" fill="none" stroke="#878787" stroke-width="2" stroke-linecap="round" stroke-linejoin="round"/><path d="M 1230,110 L 1223.0434782608695,103.50282485875707 M 1230,110 L 1223.0434782608695,116.49717514124293 Z" fill="rgb(255,255,255)" stroke="#878787" stroke-width="2" stroke-linecap="round" stroke-linejoin="round"/></g></g><g id="b6Jaw70DthM"><mask id="bc145" x="1031" y="116" width="458" height="78" maskUnits="userSpaceOnUse"><rect x="1031" y="116" width="458" height="78" fill="white" />undefinedundefinedundefinedundefinedundefinedundefinedundefinedundefinedundefinedundefinedundefinedundefined<rect x="1213.423906317367" y="167.99902738252206" width="24.21" height="24" fill="black" /></mask><g mask="url(#bc145)"><path d="M 1475,160 L 1475,170 Q 1475,180 1465,180 L 1438,180 L 1410,180 Q 1410,180 1400,180 Q 1390.0680749421304,179.93574561122333 1390.0000007395859,179.93577179256454 L 1223,180 L 1054.9999992687008,179.93575018582533 Q 1045,179.93192579242077 1045,169.93192579242077 L 1045,130" fill="none" stroke="#878787" stroke-width="2" stroke-linecap="round" stroke-linejoin="round"/><path d="M 1045,130 L 1038.502824858757,136.95652173913044 M 1045,130 L 1051.497175141243,136.95652173913044 Z" fill="rgb(255,255,255)" stroke="#878787" stroke-width="2" stroke-linecap="round" stroke-linejoin="round"/></g>undefinedundefinedundefinedundefinedundefinedundefinedundefinedundefinedundefinedundefinedundefinedundefined<g transform="translate(1216.423906317367, 170.99902738252206)" width="18.21" height="18"><text text-decoration="none" x="1.1050000000000004" fill="#878787" font-size="10pt" font-family="noto_regular"  y="15">No</text><text text-decoration="none" x="17.105" fill="#4b4b4b" font-size="10pt" font-family="noto_regular"  y="15"></text></g></g><g id="I9Fsd9qm7t4"><g transform="translate(880 410)"><path d="L 20,10 A 10 10 0 1 0 19.999995000000418 10.009999998333337 M 18.5,10 L 18.5,10 A 8.5 8.5 0 1 1 18.499995750000352 9.99150000141666" fill="rgb(0,0,0)" stroke="rgba(6,47,68,0)" stroke-width="3" stroke-linecap="round" stroke-linejoin="round"/><ellipse cx="10" cy="10" rx="5" ry="5" fill="rgb(0,0,0)" stroke="rgba(6,47,68,0)" stroke-width="3" stroke-linecap="round" stroke-linejoin="round"/><path d="M 18.5,10 L 18.5,10 A 8.5 8.5 0 1 0 18.499995750000352 10.008499998583336 M 15,10 L 15,10 A 5 5 0 1 1 14.999997500000209 9.99500000083333" fill="rgba(255,255,255,0.01)" stroke="rgba(255,255,255,0.01)" stroke-width="3" stroke-linecap="round" stroke-linejoin="round"/></g><g transform="translate(889.995, 411) rotate(0, 0.005, 9)" width="0.01" height="18"><text text-decoration="none" x="0.005" fill="#4b4b4b" font-size="10pt" font-family="noto_regular"  y="15"></text></g></g><g id="gRec9Qq83oy"><g><path d="M 940,420 L 900,420" fill="none" stroke="#878787" stroke-width="2" stroke-linecap="round" stroke-linejoin="round"/><path d="M 900,420 L 906.9565217391304,426.49717514124296 M 900,420 L 906.9565217391304,413.50282485875704 Z" fill="rgb(255,255,255)" stroke="#878787" stroke-width="2" stroke-linecap="round" stroke-linejoin="round"/></g></g><g id="SWnlHuQw7rJ"><mask id="8b0d0" x="1511" y="286" width="68" height="98" maskUnits="userSpaceOnUse"><rect x="1511" y="286" width="68" height="98" fill="white" />undefined<rect x="1512.8950000000002" y="328" width="24.21" height="24" fill="black" /></mask><g mask="url(#8b0d0)"><path d="M 1525,370 L 1525.0000000000005,310 Q 1525.0000000000005,300 1535.0000000000005,300 L 1565,300" fill="none" stroke="#878787" stroke-width="2" stroke-linecap="round" stroke-linejoin="round"/><path d="M 1565,300 L 1558.0434782608695,293.50282485875704 M 1565,300 L 1558.0434782608695,306.49717514124296 Z" fill="rgb(255,255,255)" stroke="#878787" stroke-width="2" stroke-linecap="round" stroke-linejoin="round"/></g>undefined<g transform="translate(1515.8950000000002, 331)" width="18.21" height="18"><text text-decoration="none" x="1.1050000000000004" fill="#878787" font-size="10pt" font-family="noto_regular"  y="15">No</text><text text-decoration="none" x="17.105" fill="#4b4b4b" font-size="10pt" font-family="noto_regular"  y="15"></text></g></g><g id="W61Q6L0Zfcb"><g transform="translate(1420 60.000000000000014)"><path d="M 55.00000000000014,0 L 0,49.999999999999964 L 55.00000000000014,99.99999999999993 L 110.00000000000028,49.999999999999964 L 55.00000000000014,0 Z" fill="rgb(255,89,97)" stroke="rgba(6,47,68,0)" stroke-width="3" stroke-linecap="round" stroke-linejoin="round"/></g><g transform="translate(1440.39, 91.99499999999998) rotate(0, 34.61, 18.005)" width="69.22" height="36.01"><text text-decoration="none" x="3.6099999999999994" fill="#ffffff" font-size="10pt" font-family="noto_regular"  y="12">Age&#160;</text><text text-decoration="none" x="28.61" fill="#ffffff" font-size="10pt" font-family="noto_regular"  y="12">above&#160;</text><text text-decoration="none" x="65.61" fill="#ffffff" font-size="10pt" font-family="noto_regular"  y="12"></text><text text-decoration="none" x="6.609999999999999" fill="#ffffff" font-size="10pt" font-family="noto_regular"  y="31">18&#160;</text><text text-decoration="none" x="23.61" fill="#ffffff" font-size="10pt" font-family="noto_regular"  y="31">Years?</text><text text-decoration="none" x="62.61" fill="#4b4b4b" font-size="10pt" font-family="noto_regular"  y="31"></text></g></g></svg>